# xmcd
#
# Track frame offsets: 
#        150
#        14569
#        26939
#        37223
#        56916
#        93705
#        119498
#        131909
#        146811
#        163869
#        188895
#        208454
#
# Disc length: 3047 seconds
#
# Revision: 0
# Processed by: cddbd v1.5.2PL0 Copyright (c) Steve Scherf et al.
# Submitted via: ExactAudioCopy v1.3
#
DISCID=cd0be50c
DTITLE=JP Soars - Back Of My Mind
DYEAR=2008
DGENRE=Guitar Blues
TTITLE0=Born iIn California Raise In Arkansas
TTITLE1=A Letter To My Girlfriend
TTITLE2=29 Ways
TTITLE3=Will I Ever
TTITLE4=Gypsy Woman
TTITLE5=Call My Baby
TTITLE6=Low Dirty Deal
TTITLE7=Cocaine
TTITLE8=Gangster Of Love
TTITLE9=Been Down So Long
TTITLE10=Baby I Used To Love You
TTITLE11=Blue Drag
EXTD=
EXTT0=
EXTT1=
EXTT2=
EXTT3=
EXTT4=
EXTT5=
EXTT6=
EXTT7=
EXTT8=
EXTT9=
EXTT10=
EXTT11=
PLAYORDER=
